<svg xmlns="http://www.w3.org/2000/svg" width="500" height="500" viewBox="0 0 127.474 129.471"><path d="M48.986 65.855a7.08 7.08 0 0 1-.182 1.787c-1.343 2.713-3.522 5.094-3.876 8.215-1.546.986-2.816 2.711-5.02 2.129-.077.582.101 1.467.303 2.127-1.748-.074-2.941 1.217-4.412 1.826-.785-.252-.988-1.268-1.291-1.977 1.722-.582 2.964-2.307 4.942-2.279.229-.637-.128-1.219-.229-1.826-2.46-1.092-6.363 5.398-6.691-.229 2.458-.152 4.03-2.434 6.465-2.662l.074-1.826c-2.763-.279-4.538 2.561-7.3 2.281l-.61-2.432c3.194.201 5.097-2.662 8.139-2.816.404-.531.455-1.318.533-2.053-3.321-.432-5.602 3.246-9.126 2.129 0 0-.12-1.531-.186-2.395h18.467" fill="#397657"/><path d="M52.882 65.855c.112 1.35-.218 2.697-1.49 4.07-1.826 2.152-3.675 4.865-2.357 7.758 1.395 3.191 5.78 5.676 3.878 9.656-1.038 2.51-3.524 4.412-3.422 7.377-.658-.279-1.341-.559-1.9-1.064 0-3.777 5.372-6.135 2.812-10.115-.226.785-.277 1.85-.455 2.738-.889 2.307-2.789 4.156-3.5 6.543-1.189-.459-2.433-1.422-3.422-2.436l1.371-.838c-.152-.508-.559-.938-.914-1.369-.889-.125-1.471.457-2.205.686-.634-.559-1.244-1.066-1.749-1.75.455-1.295 4.005-.227 2.204-2.357-1.216-.76-2.432.33-3.497.838l-1.445-1.826c1.242-.76 2.483-1.826 4.028-1.521.381.686.408 1.697 1.142 2.055 2.611-.051 4.462-2.029 6.464-3.576-1.396-2.076-2.534-4.943-1.294-7.453.993-2.516 3.583-4.633 3.7-7.414h2.051" fill="#397657"/><path d="M56.597 65.855c.13 1.16-.061 2.35-.871 3.611-1.646 2.234-3.801 4.588-2.814 7.529.938 2.967 4.64 4.766 4.412 8.215-.025 4.08-4.767 6.617-3.423 11.18l-2.357-.762c-.937-4.055 3.372-6.133 3.422-9.885.609-4.312-4.895-5.91-4.565-10.115-.023-3.195 2.79-5.223 4.032-7.91a5.132 5.132 0 0 0 .256-1.863h1.908" fill="#397657"/><path d="M69.629 65.855a4.911 4.911 0 0 0 .548 3.08c1.647 2.609 4.538 5.375 2.735 8.748-1.899 2.785-5.068 5.5-3.802 9.123 1.395 3.17 4.31 6.186 2.737 10.117l-2.356.531c1.875-3.83-.937-7.629-2.584-10.951-2.004-4.766 4.308-7.051 4.409-11.408-.024-2.812-3.016-4.41-3.648-6.996-1.294-1.092-2.638.432-4.185.15-1.141.23-2.89-1.572-3.573.381-.812 2.863-4.515 4.969-2.89 8.365 1.547 3.018 5.271 5.223 4.028 9.129-1.114 3.648-4.79 7.123-2.509 11.33-.938-.303-2.688.279-2.662-1.217-1.445-5.096 4.716-8.062 2.813-13.156-.886-3.119-4.918-4.844-4.03-8.596.656-3.088 4.117-5.248 3.631-8.631h11.338" fill="#397657"/><path d="M73.294 65.855c-.049.867.126 1.729.685 2.547 1.75 2.84 4.792 5.959 3.043 9.66-1.977 2.965-5.425 5.982-3.5 9.887 1.395 2.332 3.551 4.662 2.969 7.529l-2.283.76c1.521-5.348-5.933-8.494-2.813-13.842 1.927-2.865 5.373-5.553 3.423-9.355-1.166-2.355-3.575-3.75-3.5-6.693l.082-.492h1.894" fill="#397657"/><path d="M77.07 65.855a4.212 4.212 0 0 0 .559 2.166c1.648 2.969 4.615 5.781 3.5 9.506-.307 1.143-1.216 2.031-1.445 3.195 1.929 1.598 3.753 3.396 6.312 3.498.912-.582.405-3.168 2.281-1.977l2.737 1.371c-.2.734-.811 1.395-1.367 1.9-1.039-.506-2.053-1.115-3.348-1.066-.382.406-.712.863-.683 1.445.912.15 1.746.531 2.508 1.064-.354.762-1.04 1.242-1.674 1.826l-2.129-.762c-.354.508-1.092 1.041-.834 1.598.48.205 1.014.482 1.367.838-.938 1.014-2.128 1.67-3.271 2.359-.986-3.221-4.234-5.479-3.955-9.203l-.15-.152c-.762.859-.506 2.23-.456 3.344.913 2.332 3.093 4.135 3.423 6.693-.381.658-1.243.785-1.903 1.064.077-4.613-6.919-8.109-2.432-12.775 1.496-2.285 4.005-4.463 3.116-7.607-.912-3.037-4.142-4.922-4.114-8.326h1.958" fill="#397657"/><path d="M97.33 65.855c.025.857.104 1.594-.231 2.473-3.473.988-5.754-2.688-9.124-2.133l.379 1.904c3.118.102 5.07 3.092 8.29 2.963-.457.914.203 3.322-1.824 2.359-2.104-.506-3.626-2.359-5.933-2.359-.278.51-.102 1.221-.151 1.826 2.433.381 4.182 2.436 6.614 2.816-.229.836-.457 1.771-1.141 2.281-1.979-.482-3.524-2.258-5.63-2.207l-.377 1.748c2.002.051 3.296 1.826 5.095 2.357.049.738-.608 1.396-.988 2.055-1.596-.48-2.814-1.85-4.639-1.748-.026-.688.38-1.471.226-2.205-2.05.609-3.422-1.293-4.94-2.436-.044-3.738-3.979-6.193-4.187-9.695H97.33" fill="#397657"/><path d="M30.52 65.855c-.024-.338-.043-.572-.043-.572 3.144 1.219 5.905-1.038 8.593-2.203.684-.205 1.748.151 2.055-.609-.027-.583 1.038-1.268.152-1.674-3.931-.533-6.541 4.209-10.571 2.054l-.306-.609c.838-11.457 7.302-22.535 18.024-27.986 9.583-5.477 24.287-5.019 33.311 1.369 4.793 2.94 9.38 7.783 11.867 12.702 2.38 4.309 3.472 9.149 3.799 14.296-4.158 3.143-6.946-2.964-11.181-1.597.229.66.356 1.344.84 1.902 3.753-.026 6.337 3.904 10.266 2.355l.003.572H78.768a5.19 5.19 0 0 1 .384-2.243c1.293-2.991.886-6.872-.533-9.661-.431-.734-1.191-1.316-1.902-1.748 1.041 2.207 2.307 4.817 1.674 7.529-.073 2.094-1.306 4.104-1.32 6.123h-1.958l.008-.266c.734-3.55 2.968-7.328 1.142-11.105-.508-1.52-1.646-3.244-3.193-3.878 2.306 2.638 3.218 6.946 1.899 10.497-.665 1.412-1.582 3.091-1.673 4.751H71.4c.785-4.175 3.962-8.125 1.743-12.587-.583-1.318-1.748-2.661-3.041-3.423l-.078.078c2.587 2.51 3.372 6.643 1.978 9.962-.652 1.947-2.081 3.883-2.371 5.97H58.292a4.975 4.975 0 0 0-.207-.875c-1.293-3.651-3.931-7.3-2.359-11.561.432-1.217 1.295-2.257 2.053-3.345-2.51 1.343-3.777 4.183-3.726 7.073-.109 3.141 2.214 5.833 2.544 8.708H54.69c-.152-2.972-2.829-5.291-2.385-8.632.15-2.459.986-4.615 2.583-6.464-2.204.886-3.116 3.422-3.725 5.551-1.057 3.415 1.466 6.485 1.719 9.545h-2.051a4.96 4.96 0 0 0-.351-2.017c-1.368-3.523-1.851-8.287.76-11.406-1.42.381-2.256 2.153-2.738 3.497-1.57 3.44.416 6.628.484 9.926H30.52" fill="#397657"/><path d="M65.688 36.46l4.108.229-.076.381-3.042 2.89c.531 1.294 1.064 2.587 1.597 3.877 2.307-1.341 4.514-3.015 7.302-3.194-.254 1.472-1.369 3.019-1.219 4.487 1.725-.481 3.299-1.545 5.175-1.445-1.168 2.156-2.867 4.312-2.969 6.998-2.56-.961-5.197-2.13-8.06-2.585-6.11-1.041-11.993.303-17.039 2.738-.43-2.56-1.671-4.792-3.193-6.921.912-.304 2.027.201 2.967.458.786.226 1.445.758 2.282.912.15-1.521-.735-3.017-1.368-4.412.431-.33 1.115-.078 1.597.077 2.001.759 3.802 1.95 5.628 3.042.937-1.092 1.29-2.664 1.671-4.109l-3.116-2.813v-.303l4.106-.23c.683-1.292 1.14-2.661 1.825-3.954.837 1.141 1.116 2.637 1.824 3.877" fill="#fff"/><path d="M67.133 44.75l-.378.38c-1.902-.202-3.904.05-5.706.078-.202-.203-.606-.508-.229-.762l2.891-2.207c1.193.688 2.459 1.574 3.422 2.511" fill="#397657"/><path d="M16.407 45.814c-1.573 1.219-2.688 2.994-2.357 5.021.178.304.354.759.76.835 1.267 0 1.698-1.367 2.28-2.205.685-1.521 2.005-3.17 3.804-3.346 1.546-.1 2.867.304 3.88 1.521 1.546 1.852 1.267 4.843.533 6.999-.687 1.597-1.751 3.217-3.271 4.258l-2.739-1.674c1.496-1.037 3.069-2.738 3.271-4.639 0-.684-.15-1.597-.99-1.674-1.748.508-1.925 2.611-3.116 3.803-.912.939-2.054 1.647-3.5 1.444-1.344-.077-2.486-.912-3.271-1.977-1.496-2.28-.761-5.629.152-7.376.559-.99 1.219-1.978 2.131-2.74.759.433 1.648 1.093 2.433 1.75M115.732 47.795c1.317 2.128 1.827 4.941 1.141 7.528l-2.814-.152c.382-1.699.66-3.828-.532-5.248-.354-.431-.988-.686-1.445-.457-1.546 1.724.13 4.21-.834 6.161-.458.889-1.142 1.953-2.131 2.356-1.599.609-3.576.305-4.793-.912-2.381-2.485-3.498-6.339-1.975-9.583h2.965c-.507 1.27-.859 3.068-.379 4.564.252.634.557 1.445 1.294 1.673 2.433.088.784-3.397 1.367-5.021.229-1.216.887-2.483 2.128-3.042 2.281-1.115 4.945.152 6.008 2.133M41.125 52.584c2.458-.939 5.804-2.56 8.441-.836-.559.785-1.646 1.217-2.435 1.9-1.291 1.267-2.863 2.812-3.8 4.41-3.169-.635-5.706 1.219-8.367 2.283-1.014.201-2.358.303-3.194-.381 2.51-4.134 6.057-7.936 5.171-13.386.279-.482.76-.075 1.064.077 1.954 1.521 2.891 3.626 3.12 5.933M91.167 47.184c-.987 5.171 2.56 8.823 4.943 12.777-2.736 1.826-5.325-.99-7.909-1.674-1.141-.176-2.483-.33-3.576-.152-1.569-2.432-3.674-4.715-6.235-6.083.151-.835 1.317-.889 2.13-.99 2.256-.226 4.233.711 6.084 1.675.355-.835.507-1.775.759-2.661.611-1.496 1.804-3.019 3.35-3.651.328.05.556.406.454.759M70.023 51.901c.078.43.508.811.229 1.293-1.496-.458-3.193-.205-4.639.378-1.294.963-1.091 2.943-.761 4.335l.381.306c.633-.153.66-.963 1.216-1.142.939.229 2.231.56 3.118 0 .785.026.762 1.115.836 1.674-.557 2.941-1.799 6.135-4.79 7.529-1.243.609-2.841.201-4.032-.229-2.94-1.749-4.588-5.222-4.258-8.364.229-.482.584-.863 1.143-.533 1.188.81 2.481-.633 3.573.378 1.317-.583.532-2.203.532-3.42-1.064-1.37-2.89-1.168-4.486-1.066-.711-.432.051-1.115.226-1.597 1.725-2.433 5.022-2.483 7.909-2.129 1.472.38 3.095 1.014 3.803 2.587"  fill="#fff"/>
<path d="M61.201 55.398v.306c-.861-.077-2.254-.939-3.041.151-.506.226-.582-.357-.531-.685a.595.595 0 0 1 .457-.76c1.189-.279 2.533.075 3.115.988M70.252 55.017c-.024.306.051.66-.304.838-.964-.38-2.308-.913-3.271-.151-.559-1.192.99-.939 1.521-1.293.787-.028 1.7-.051 2.054.606" fill="#fff"/><path d="M65.384 59.885c-.455.963-1.926.355-2.738.531-.276-.102-.102-.404-.152-.607.812-.559 2.257-.633 2.89.076M66.6 62.016c-.605.912-1.519 2.051-2.735 1.978-1.371.101-1.674-1.015-2.664-1.674l-.074-.459c1.826.28 3.828-.073 5.473.155" fill="#397657"/><path d="M127.474 64.735c0 35.734-28.554 64.736-63.736 64.736S0 100.469 0 64.735C0 29.002 28.555 0 63.738 0s63.736 29.002 63.736 64.735z" fill="none"/></svg>